<?xml version="1.0" encoding="UTF-8" standalone="no"?>
<!DOCTYPE svg PUBLIC "-//W3C//DTD SVG 1.1//EN" "http://www.w3.org/Graphics/SVG/1.1/DTD/svg11.dtd">
<svg width="100%" height="100%" viewBox="0 0 200 200" version="1.1" xmlns="http://www.w3.org/2000/svg" xmlns:xlink="http://www.w3.org/1999/xlink" xml:space="preserve" xmlns:serif="http://www.serif.com/" style="fill-rule:evenodd;clip-rule:evenodd;stroke-linejoin:round;stroke-miterlimit:2;">
    <g transform="matrix(1,0,0,1,-391.997,-213.622)">
        <g>
            <g transform="matrix(2.51406,0,0,2.3069,151.487,-642.123)">
                <rect x="95.666" y="370.95" width="79.553" height="86.696" style="fill:none;"/>
            </g>
            <g transform="matrix(0.639439,0,0,0.658647,284.931,123.569)">
                <path d="M386.574,418.595C386.574,414.08 382.634,405.243 374.802,404.718L272.711,405.045C268.862,405.045 260.98,412.373 261.074,419.067C261.185,426.891 269.166,431.77 273.016,431.77L375.394,431.796C382.552,431.68 386.574,421.835 386.574,418.595Z" style="fill:rgb(255,178,0);"/>
            </g>
            <g transform="matrix(0.639439,0,0,0.658647,284.931,99.8714)">
                <path d="M386.574,418.595C386.574,414.08 382.634,405.243 374.802,404.718L272.711,405.045C268.862,405.045 260.98,412.373 261.074,419.067C261.185,426.891 269.166,431.77 273.016,431.77L375.394,431.796C382.552,431.68 386.574,421.835 386.574,418.595Z" style="fill:rgb(255,178,0);"/>
            </g>
            <g transform="matrix(0.538589,0,0,0.538589,194.965,100.574)">
                <path d="M563.44,251.336C529.885,250.991 483.017,253.434 464.445,286.461C461.855,291.066 458.51,295.498 457.408,300.666C455.686,308.743 455.562,317.171 456.141,325.409C456.547,331.178 464.853,356.237 466.765,360.278C469.821,366.74 486.557,390.081 489.757,393.922C492.722,397.481 505.649,407.911 508.34,411.814C519.887,428.566 521.127,439.285 514.971,458.037C512.117,466.73 506.137,478.412 495.748,480.23C480,482.986 476.926,464.514 480.002,453.708C481.557,448.248 485.289,443.376 485.905,437.733C486.13,435.671 483.656,434.23 482.299,432.662C478.081,427.787 472.95,423.769 468.588,419.022C453.008,402.069 440.015,383.116 431.666,361.487C425.754,346.172 421.117,327.112 422.946,310.543C426.972,274.083 447.828,242.302 483.191,229.889C519.094,217.286 561.068,214.022 598.13,223.27C627.902,230.7 656.855,252.317 669.661,280.491C679.301,301.701 681.428,330.361 676.174,352.988C670.505,377.396 656.107,404.766 634.866,419.409C625.692,425.734 623.741,422.711 616.304,430.859C612.616,434.899 609.464,441.215 612.884,446.323C614.519,448.765 617.5,450.498 618.21,453.35C620.258,461.578 619.119,472.624 610.033,475.872C587.936,483.769 579.978,456.982 578.594,440.569C578.12,434.938 578.225,428.894 580.672,423.622C591.355,400.609 618.905,394.956 631.94,373.709C640.833,359.213 641.513,358.507 643.627,343.673C644.922,334.586 645.544,321.682 644.414,312.928C639.392,274.039 599.454,251.706 563.44,251.336Z" style="fill:rgb(255,178,0);"/>
            </g>
        </g>
    </g>
</svg>
